# xmcd
#
# Track frame offsets: 
#        150
#        10840
#        22342
#        33894
#        48539
#        59978
#        73561
#        83945
#        107543
#        119588
#        137418
#        147930
#        161854
#        173000
#        186368
#        198344
#        212104
#        221105
#        238344
#        255465
#        266982
#        282685
#        293424
#        307522
#        317933
#        332556
#
# Disc length: 4666 seconds
#
# Revision: 6
# Processed by: cddbd v1.5.2PL0 Copyright (c) Steve Scherf et al.
# Submitted via: ExactAudioCopyFreeDBPlugin 1.0
#
DISCID=9912381a
DTITLE=B.B. King - The Vintage Years [CD 4) - Of the Blues
DYEAR=2002
DGENRE=Blues
TTITLE0=I'm King
TTITLE1=Baby Please Don't Go
TTITLE2=Mean Old Frisco
TTITLE3=I've Got a Right to Love My Baby
TTITLE4=Fishin' After Me (Aka Catfish Blues)
TTITLE5=Partin' Time
TTITLE6=Bad Luck Soul
TTITLE7=You Done Lost Your Good Thing Now
TTITLE8=Get Out of Here
TTITLE9=Hold That Train
TTITLE10=Bad Case of Love
TTITLE11=Let Me Love You
TTITLE12=Mashed Potato Twist
TTITLE13=Got 'Em Bad
TTITLE14=Christmas Celebration
TTITLE15=Down Now
TTITLE16=Beautician Blues
TTITLE17=The Worst Thing in My Life
TTITLE18=Blue Shadows
TTITLE19=It's a Mean World
TTITLE20=Five Long Years
TTITLE21=Make Me Blue
TTITLE22=Blues Stay Away from Me
TTITLE23=Long Gone Baby
TTITLE24=The Jungle
TTITLE25=That Evil Child
EXTD=
EXTT0=
EXTT1=
EXTT2=
EXTT3=
EXTT4=
EXTT5=
EXTT6=
EXTT7=
EXTT8=
EXTT9=
EXTT10=
EXTT11=
EXTT12=
EXTT13=
EXTT14=
EXTT15=
EXTT16=
EXTT17=
EXTT18=
EXTT19=
EXTT20=
EXTT21=
EXTT22=
EXTT23=
EXTT24=
EXTT25=
PLAYORDER=
